<svg width="15" height="21" id="address" data-name="address" xmlns="http://www.w3.org/2000/svg" viewBox="0 0 14.9851 20.7383"><defs><style>.cls-1{fill:#232323;fill-rule:evenodd;}</style></defs><title>address</title><path class="cls-1" d="M7.49.2614A7.5937,7.5937,0,0,0-.0025,7.952C-.0025,14.26,7.49,21,7.49,21s7.4925-6.3939,7.4925-13.0474A7.5937,7.5937,0,0,0,7.49.2614Zm0,12.3572A4.6929,4.6929,0,0,1,2.86,7.8659,4.6921,4.6921,0,0,1,7.49,3.1136a4.6923,4.6923,0,0,1,4.63,4.7523A4.6929,4.6929,0,0,1,7.49,12.6186Z" transform="translate(0.0025 -0.2614)"/></svg>