<svg width="26" height="23" id="message" data-name="message" xmlns="http://www.w3.org/2000/svg" viewBox="0 0 25.0669 21.939"><defs><style>.cls-1{fill:#ffa100;fill-rule:evenodd;}</style></defs><title>message</title><path class="cls-1" d="M25.0658,4.0276A3.78,3.78,0,0,0,21.3005.241H3.7642A3.78,3.78,0,0,0-.0011,4.0276V14.7653a3.7805,3.7805,0,0,0,3.7653,3.7866h12.39a.6821.6821,0,0,1,.4839.2015L20.045,22.18V19.24a.6864.6864,0,0,1,.6845-.6883h.571a3.78,3.78,0,0,0,3.7653-3.7866ZM18.95,10.996a1.5492,1.5492,0,1,1,1.54-1.5494A1.5446,1.5446,0,0,1,18.95,10.996Zm-6.418,0a1.5492,1.5492,0,1,1,1.54-1.5494A1.5446,1.5446,0,0,1,12.5323,10.996Zm-6.4181,0a1.5492,1.5492,0,1,1,1.54-1.5494A1.5445,1.5445,0,0,1,6.1142,10.996Z" transform="translate(0.0011 -0.241)"/></svg>