<svg width="20" height="25" id="name" data-name="name" xmlns="http://www.w3.org/2000/svg" viewBox="0 0 18.2664 23.7646"><defs><style>.cls-1{fill:#ffa100;fill-rule:evenodd;}</style></defs><title>name</title><path class="cls-1" d="M7.11,14.91a3.9781,3.9781,0,0,1-1.3787-3.2408c0-.0427,0-.0906.0028-.1311a.4291.4291,0,0,0-.1089-.3227.41.41,0,0,0-.3061-.136H4.8974a.84.84,0,0,1-.83-.849V8.9575a.8553.8553,0,0,1,.242-.6015.8187.8187,0,0,1,.5884-.2475.4244.4244,0,0,0,0-.8486,1.5681,1.5681,0,0,0-.1957.0205C3.8747,3.92,5.3925.47,8.7206.47c2.0045,0,4.193.8487,4.6357,2.8134.0651.28.3136.31.4434.3606,1.3591.5471,1.66,2.1646,1.39,3.6565a1.2146,1.2146,0,0,0-.3205-.0424.4245.4245,0,0,0,0,.8487.84.84,0,0,1,.83.8487v1.2732a.84.84,0,0,1-.83.8486h-.4235a.4106.4106,0,0,0-.3061.1363.4294.4294,0,0,0-.1088.3225c.0032.04.0026.0877.0026.1314a3.9769,3.9769,0,0,1-1.3785,3.2408,2.0809,2.0809,0,0,0-.6958,1.5875v.8486a2.1337,2.1337,0,0,0,1.3364,1.983l4.05,1.5774a2.6687,2.6687,0,0,1,1.6713,2.4811v.8487H.75V23.386a2.6691,2.6691,0,0,1,1.6714-2.4811l4.05-1.5774a2.1339,2.1339,0,0,0,1.3363-1.983v-.8486A2.081,2.081,0,0,0,7.11,14.91Z" transform="translate(-0.7499 -0.4701)"/></svg>