<svg width="14" height="17" id="phone" data-name="phone" xmlns="http://www.w3.org/2000/svg" viewBox="0 0 15.0003 18.0001"><defs><style>.cls-1{fill:#232323;fill-rule:evenodd;}</style></defs><title>phone</title><path class="cls-1" d="M15,15.4747a2.3143,2.3143,0,0,1-.8316,1.3332,4.1173,4.1173,0,0,1-3.0107,1.1881c-1.3764-.0578-4.9893-3.39-6.91-5.6509S-.1112,5.1869.0036,3.651,1.982.1154,3.2724,0C4.1039.2605,5.4516,4.1726,5.48,5.1869c-.086.4346-.6881.29-1.2329.7245a2.0169,2.0169,0,0,0-.7742,1.3912c0,.6954,1.5484,2.7821,2.1218,3.5355s2.38,2.9849,3.2115,2.8688.9462-.8829,1.4337-1.3328C10.9,11.7654,14.2257,14.46,15,15.4747Z" transform="translate(0.0003 0.0003)"/></svg>