<svg height="20" id="stars" data-name="stars" xmlns="http://www.w3.org/2000/svg" viewBox="0 0 122.9972 19.9991"><defs><style>.cls-1{fill:#ffa100;fill-rule:evenodd;}</style></defs><title>stars</title><path class="cls-1" d="M116.5569,12.4669,118.9682,20l-6.5215-4.4177L105.9251,20l2.4113-7.5326-6.4416-4.8275,7.9015-.1211L112.4467,0l2.65,7.5179,7.9016.1211ZM93.4948,20l-6.5215-4.4177L80.4517,20l2.4114-7.5326L76.4214,7.6394l7.9015-.1211L86.9733,0l2.65,7.5179,7.9016.1211-6.4417,4.8275ZM68.0215,20,61.5,15.5818,54.9784,20,57.39,12.4669,50.9481,7.6394,58.85,7.5183,61.5,0l2.65,7.5179,7.9015.1211L65.61,12.4669ZM42.5481,20l-6.5215-4.4177L29.505,20l2.4113-7.5326L25.4747,7.6394l7.9015-.1211L36.0266,0l2.65,7.5179,7.9015.1211-6.4416,4.8275ZM17.0747,20l-6.5215-4.4177L4.0316,20l2.4113-7.5326L.0014,7.6394l7.9014-.1211L10.5532,0l2.65,7.5179,7.9016.1211-6.4417,4.8275Z" transform="translate(-0.0014 -0.0004)"/></svg>